# Blender 4.0.0
# www.blender.org
mtllib skirt.mtl
o Plane
v 1.000000 2.000000 0.500000
v -0.782160 2.000000 0.427990
v -0.489815 2.000000 0.468984
v -0.158005 2.000000 0.463006
v 0.174619 2.000000 0.464473
v 0.511247 2.000000 0.458191
v 0.817994 2.000000 -0.413854
v 0.467704 2.000000 -0.493321
v 0.150091 2.000000 -0.479603
v -0.202322 2.000000 -0.457980
v -0.500040 2.000000 -0.497410
v -1.027962 2.000000 -0.297972
v -0.993076 2.000000 0.000288
v 0.953892 2.000000 0.329017
v 0.957423 2.000000 -0.003679
v -1.266463 0.000000 0.205128
v 0.806881 0.000000 0.932206
v 0.981278 0.000000 0.591425
v 1.271481 0.000000 -0.149061
v 1.154683 0.000000 -0.521297
v -0.800481 0.000000 -0.856810
v -1.122834 0.000000 -0.563421
v -0.922471 0.000000 0.868745
v -0.454678 0.020610 0.964452
v -0.051684 0.000000 1.153864
v 0.410831 0.000000 1.106310
v 0.843536 0.000000 -0.834991
v 0.547582 0.000000 -1.032298
v 0.066813 0.000000 -1.099273
v -0.358508 0.000000 -1.078324
v -1.461922 0.000000 -0.484667
v 1.251265 0.000000 0.312051
v -0.008661 2.000000 0.536994
v -0.333293 2.000000 -0.502590
v -0.181824 0.000000 1.353480
v -0.309555 0.000000 -1.270531
v 0.325381 2.000000 0.535527
v 0.049301 2.000000 -0.532151
v 0.365616 0.000000 1.329617
v 0.210169 0.000000 -1.301567
v 0.655420 2.000000 0.541809
v 0.387337 2.000000 -0.567221
v 0.847362 0.000000 1.137519
v 0.699051 0.000000 -1.135284
v 0.833333 2.000000 0.500000
v 0.666707 2.000000 -0.502590
v 1.157366 0.000000 0.870474
v 1.089406 0.000000 -0.917783
v -0.343519 2.000000 0.531016
v -0.617020 2.000000 -0.529301
v -0.708593 0.000000 1.224863
v -0.846988 0.000000 -1.102424
v -0.999960 2.000000 -0.502590
v -0.705032 2.000000 0.541457
v -1.250656 0.000000 -0.753187
v -1.117462 0.000000 0.925726
v 1.010312 2.000000 -0.543477
v -1.002590 2.000000 -0.166707
v 1.391221 0.000000 -0.523343
v -1.437828 0.000000 -0.391201
v -1.006924 2.000000 0.166378
v 1.046108 2.000000 -0.162351
v -1.482928 0.000000 0.195952
v 1.550665 0.000000 -0.062648
v -1.002590 2.000000 0.499960
v 1.002590 2.000000 0.166707
v -1.393144 0.000000 0.596989
v 1.459811 0.000000 0.482260
vn -0.9699 0.2296 -0.0809
vn 0.2554 0.2391 -0.9368
vn -0.4116 0.3748 0.8308
vn 0.9260 0.2555 0.2778
vn -0.4023 0.3308 0.8536
vn 0.8479 0.2375 0.4739
vn -0.4910 0.2051 0.8467
vn -0.0000 -0.1821 -0.9833
vn 0.4864 0.2750 -0.8293
vn 0.6457 0.3001 -0.7022
vn 0.4324 0.3538 -0.8294
vn -0.7967 0.2683 0.5415
vn -0.9526 0.1797 0.2456
vn 0.3027 0.3448 -0.8886
vn -0.3636 0.3639 0.8575
vn -0.4004 -0.2559 0.8799
vn 0.8086 -0.1293 -0.5740
vn -0.6071 -0.2293 0.7608
vn 0.3720 -0.2853 -0.8833
vn -0.8964 -0.1023 0.4313
vn 0.0681 -0.2976 -0.9523
vn -0.1679 -0.2508 -0.9534
vn 0.8446 -0.1710 -0.5073
vn -0.0471 -0.2926 0.9551
vn 0.2196 -0.2044 0.9539
vn -0.9448 -0.1264 -0.3023
vn -0.7765 -0.1102 -0.6204
vn 0.9771 -0.2079 -0.0443
vn 0.9469 -0.0981 0.3061
vn -0.2222 -0.0424 -0.9741
vn 0.4701 -0.1988 0.8599
vn 0.1377 -0.0748 -0.9876
vn -0.9843 -0.0693 0.1621
vn 0.0421 -0.1075 -0.9933
vn 0.9762 -0.1134 -0.1848
vn -0.8158 -0.2271 -0.5319
vn -0.6291 -0.1001 0.7708
vn -0.9647 -0.1766 -0.1953
vn -0.2937 -0.1151 0.9489
vn -0.9763 -0.0987 0.1925
vn -0.8453 0.0323 0.5334
vn 0.3132 -0.1919 0.9301
vn 0.5513 -0.1965 0.8108
vn 0.7980 -0.2084 0.5655
vn -0.2755 -0.1884 -0.9427
vn -0.9636 0.1917 0.1863
vn 0.9580 -0.1505 0.2440
vn -0.6961 -0.1859 -0.6935
vn -0.0443 -0.3586 0.9325
vn 0.1292 -0.3844 -0.9141
vn -0.0861 -0.3637 0.9275
vn 0.1382 -0.3631 -0.9214
vn -0.3195 -0.3047 0.8973
vn 0.1530 -0.2686 -0.9510
vn 0.1271 -0.1607 -0.9788
vn 0.2138 -0.3548 -0.9102
vn -0.1639 -0.2543 0.9531
vn -0.0103 -0.1231 0.9923
vn -0.9776 -0.1872 -0.0958
vn -0.9519 -0.2490 -0.1786
vn 0.9725 -0.2310 0.0300
vn 0.9815 -0.1908 0.0187
vn -0.9746 -0.2240 -0.0076
vn 0.8289 -0.0339 -0.5583
vn 0.9981 -0.0616 0.0078
vn 0.7376 -0.2709 -0.6185
vn 0.0086 0.0117 0.9999
vn 0.1163 -0.1783 0.9771
vt 1.000000 -0.000000
vt 0.937500 0.375000
vt 0.937500 0.000000
vt 1.000000 0.375000
vt 0.125000 -0.000000
vt 0.125000 0.375000
vt 0.312500 -0.000000
vt 0.312500 0.375000
vt 0.750000 -0.000000
vt 0.687500 0.375000
vt 0.687500 -0.000000
vt 0.750000 0.375000
vt 0.375000 0.000000
vt 0.437500 0.375000
vt 0.437500 -0.000000
vt 0.500000 -0.000000
vt 0.625000 0.000000
vt 0.562500 0.375000
vt 0.562500 -0.000000
vt 0.187500 -0.000000
vt 0.187500 0.375000
vt 0.625000 0.375000
vt 0.000000 -0.000000
vt 0.000000 0.375000
vt 0.500000 0.375000
vt 0.250000 0.000000
vt 0.250000 0.375000
vt 0.375000 0.375000
vt 0.812500 -0.000000
vt 0.812500 0.375000
vt 0.875000 0.375000
vt 0.875000 -0.000000
s 0
usemtl Material.001
f 13/1/1 63/2/1 61/3/1
f 11/1/2 52/4/2 50/1/2
f 4/5/3 35/6/3 33/5/3
f 14/3/4 68/2/4 66/3/4
f 5/7/5 39/8/5 37/7/5
f 15/9/6 64/10/6 62/11/6
f 6/1/7 43/4/7 41/1/7
f 1/9/8 47/12/8 45/9/8
f 7/5/9 48/6/9 46/5/9
f 8/9/10 44/10/10 42/11/10
f 9/13/11 40/14/11 38/15/11
f 2/16/12 56/14/12 54/15/12
f 58/3/13 31/4/13 60/2/13
f 10/16/14 36/14/14 34/15/14
f 3/17/15 51/18/15 49/19/15
f 9/11/16 36/12/16 29/10/16
f 3/20/17 35/8/17 24/21/17
f 8/17/18 40/10/18 28/22/18
f 4/23/19 39/6/19 25/24/19
f 7/20/20 44/8/20 27/21/20
f 5/5/21 43/21/21 26/6/21
f 6/19/22 47/22/22 17/18/22
f 2/16/23 51/18/23 23/25/23
f 10/26/24 52/8/24 30/27/24
f 11/7/25 55/28/25 21/8/25
f 15/29/26 59/2/26 19/30/26
f 14/9/27 64/31/27 32/12/27
f 61/3/28 31/31/28 12/32/28
f 13/23/29 67/6/29 16/24/29
f 1/9/30 68/30/30 18/12/30
f 58/26/31 60/27/31 22/21/31
f 54/20/32 67/6/32 65/5/32
f 20/18/33 57/16/33 48/18/33
f 13/1/34 16/4/34 63/2/34
f 11/1/35 21/4/35 52/4/35
f 4/5/36 25/6/36 35/6/36
f 14/3/37 32/2/37 68/2/37
f 5/7/38 26/8/38 39/8/38
f 15/9/39 19/12/39 64/10/39
f 6/1/40 17/4/40 43/4/40
f 1/9/41 18/12/41 47/12/41
f 7/5/42 27/6/42 48/6/42
f 8/9/43 28/12/43 44/10/43
f 9/13/44 29/28/44 40/14/44
f 2/16/45 23/25/45 56/14/45
f 58/3/46 12/1/46 31/4/46
f 10/16/47 30/25/47 36/14/47
f 3/17/48 24/22/48 51/18/48
f 9/11/49 34/9/49 36/12/49
f 3/20/50 33/7/50 35/8/50
f 8/17/51 38/11/51 40/10/51
f 4/23/52 37/5/52 39/6/52
f 7/20/53 42/7/53 44/8/53
f 5/5/54 41/20/54 43/21/54
f 6/19/55 45/17/55 47/22/55
f 2/16/56 49/19/56 51/18/56
f 10/26/57 50/7/57 52/8/57
f 11/7/58 53/13/58 55/28/58
f 15/29/59 57/3/59 59/2/59
f 14/9/60 62/32/60 64/31/60
f 61/3/61 63/2/61 31/31/61
f 13/23/62 65/5/62 67/6/62
f 1/9/63 66/29/63 68/30/63
f 55/21/64 53/20/64 22/21/64
f 53/20/65 58/26/65 22/21/65
f 54/20/66 56/21/66 67/6/66
f 59/25/67 57/16/67 20/18/67
f 57/16/68 46/19/68 48/18/68
